<svg width="337" height="261" viewBox="0 0 337 261" fill="none" xmlns="http://www.w3.org/2000/svg">
<path d="M57.3498 175.035L56.881 171.848C56.7248 170.817 56.6467 170.239 56.6467 170.114C56.6467 169.801 56.881 169.535 57.3498 169.317L65.2717 165.614C65.3967 165.551 65.5373 165.52 65.6935 165.52C66.131 165.52 66.4123 165.801 66.5373 166.364L79.2873 229.926C79.506 231.082 79.7717 231.91 80.0842 232.41C80.4279 232.91 81.0685 233.442 82.006 234.004C82.7248 234.442 83.0842 234.942 83.0842 235.504V237.567C83.0842 238.317 82.7873 238.692 82.1935 238.692H66.5373C65.6935 238.692 65.2717 238.317 65.2717 237.567V235.504C65.2717 234.785 65.7717 234.176 66.7717 233.676C67.9904 233.02 68.5998 232.129 68.5998 231.004C68.5998 230.692 68.5685 230.332 68.506 229.926L66.5373 220.129H54.3029L52.3342 229.551C52.2404 229.957 52.1935 230.254 52.1935 230.442C52.1935 231.379 52.8967 232.41 54.3029 233.535C55.2092 234.285 55.6623 234.942 55.6623 235.504V237.567C55.6623 238.317 55.2092 238.692 54.3029 238.692H44.506C43.4123 238.692 42.8654 238.317 42.8654 237.567V235.129C42.8654 234.473 43.2092 233.942 43.8967 233.535C45.1779 232.754 46.0217 231.426 46.4279 229.551L57.3498 175.035ZM60.5373 190.082L55.6623 214.129H65.2717L60.5373 190.082ZM99.3029 204.567V229.973C99.3029 231.598 99.8967 232.817 101.084 233.629C101.897 234.16 102.303 234.785 102.303 235.504V237.614C102.303 238.332 101.897 238.692 101.084 238.692H86.4592C85.7717 238.692 85.4279 238.364 85.4279 237.707V235.504C85.4279 234.817 85.8342 234.192 86.6467 233.629C87.8342 232.785 88.4279 231.567 88.4279 229.973V174.473C88.4279 172.879 87.8342 171.676 86.6467 170.864C85.8342 170.332 85.4279 169.692 85.4279 168.942V166.879C85.4279 166.16 85.8342 165.801 86.6467 165.801H98.9279C105.865 165.801 111.147 167.364 114.772 170.489C118.397 173.614 120.209 178.129 120.209 184.035C120.209 193.442 115.85 199.52 107.131 202.27C109.694 203.52 111.631 204.942 112.944 206.535C114.287 208.098 115.319 210.41 116.037 213.473L119.459 228.332C119.897 230.239 120.319 231.535 120.725 232.223C121.162 232.879 121.865 233.504 122.834 234.098C123.115 234.285 123.256 234.582 123.256 234.989V237.66C123.256 238.348 122.912 238.692 122.225 238.692H112.85C111.944 238.692 111.365 238.192 111.115 237.192L104.74 211.41C104.053 208.567 103.287 206.723 102.444 205.879C101.631 205.035 100.584 204.598 99.3029 204.567ZM99.3029 171.473V198.989C102.678 198.989 105.162 197.926 106.756 195.801C108.35 193.676 109.147 189.895 109.147 184.457C109.147 179.145 108.334 175.66 106.709 174.004C105.115 172.317 102.647 171.473 99.3029 171.473ZM139.194 175.035L138.725 171.848C138.569 170.817 138.49 170.239 138.49 170.114C138.49 169.801 138.725 169.535 139.194 169.317L147.115 165.614C147.24 165.551 147.381 165.52 147.537 165.52C147.975 165.52 148.256 165.801 148.381 166.364L161.131 229.926C161.35 231.082 161.615 231.91 161.928 232.41C162.272 232.91 162.912 233.442 163.85 234.004C164.569 234.442 164.928 234.942 164.928 235.504V237.567C164.928 238.317 164.631 238.692 164.037 238.692H148.381C147.537 238.692 147.115 238.317 147.115 237.567V235.504C147.115 234.785 147.615 234.176 148.615 233.676C149.834 233.02 150.444 232.129 150.444 231.004C150.444 230.692 150.412 230.332 150.35 229.926L148.381 220.129H136.147L134.178 229.551C134.084 229.957 134.037 230.254 134.037 230.442C134.037 231.379 134.74 232.41 136.147 233.535C137.053 234.285 137.506 234.942 137.506 235.504V237.567C137.506 238.317 137.053 238.692 136.147 238.692H126.35C125.256 238.692 124.709 238.317 124.709 237.567V235.129C124.709 234.473 125.053 233.942 125.74 233.535C127.022 232.754 127.865 231.426 128.272 229.551L139.194 175.035ZM142.381 190.082L137.506 214.129H147.115L142.381 190.082ZM170.272 229.973V174.473C170.272 172.879 169.678 171.676 168.49 170.864C167.678 170.332 167.272 169.692 167.272 168.942V166.879C167.272 166.16 167.678 165.801 168.49 165.801H183.115C183.803 165.801 184.147 166.129 184.147 166.785V168.942C184.147 169.66 183.74 170.301 182.928 170.864C181.74 171.707 181.147 172.91 181.147 174.473V233.114H185.131C187.475 233.114 189.287 232.395 190.569 230.957C191.881 229.489 192.85 227.004 193.475 223.504C193.725 222.16 193.897 221.395 193.99 221.207C194.115 220.989 194.397 220.879 194.834 220.879H197.037C197.881 220.879 198.303 221.223 198.303 221.91V238.692H168.444C167.412 238.692 166.897 238.223 166.897 237.285V235.504C166.897 234.785 167.35 234.16 168.256 233.629C169.6 232.817 170.272 231.598 170.272 229.973ZM214.615 229.973C214.615 231.598 215.209 232.817 216.397 233.629C217.209 234.16 217.615 234.785 217.615 235.504V237.614C217.615 238.332 217.209 238.692 216.397 238.692H201.772C201.084 238.692 200.74 238.364 200.74 237.707V235.504C200.74 234.817 201.147 234.192 201.959 233.629C203.147 232.785 203.74 231.567 203.74 229.973V174.473C203.74 172.879 203.147 171.676 201.959 170.864C201.147 170.332 200.74 169.692 200.74 168.942V166.879C200.74 166.16 201.147 165.801 201.959 165.801H216.584C217.272 165.801 217.615 166.129 217.615 166.785V168.942C217.615 169.66 217.209 170.301 216.397 170.864C215.209 171.707 214.615 172.91 214.615 174.473V229.973ZM223.709 229.973V174.473C223.709 172.879 223.115 171.676 221.928 170.864C221.115 170.332 220.709 169.692 220.709 168.942V166.879C220.709 166.16 221.115 165.801 221.928 165.801H236.553C237.24 165.801 237.584 166.129 237.584 166.785V168.942C237.584 169.66 237.178 170.301 236.365 170.864C235.178 171.707 234.584 172.91 234.584 174.473V233.114H238.569C240.912 233.114 242.725 232.395 244.006 230.957C245.319 229.489 246.287 227.004 246.912 223.504C247.162 222.16 247.334 221.395 247.428 221.207C247.553 220.989 247.834 220.879 248.272 220.879H250.475C251.319 220.879 251.74 221.223 251.74 221.91V238.692H221.881C220.85 238.692 220.334 238.223 220.334 237.285V235.504C220.334 234.785 220.787 234.16 221.694 233.629C223.037 232.817 223.709 231.598 223.709 229.973ZM268.006 175.035L267.537 171.848C267.381 170.817 267.303 170.239 267.303 170.114C267.303 169.801 267.537 169.535 268.006 169.317L275.928 165.614C276.053 165.551 276.194 165.52 276.35 165.52C276.787 165.52 277.069 165.801 277.194 166.364L289.944 229.926C290.162 231.082 290.428 231.91 290.74 232.41C291.084 232.91 291.725 233.442 292.662 234.004C293.381 234.442 293.74 234.942 293.74 235.504V237.567C293.74 238.317 293.444 238.692 292.85 238.692H277.194C276.35 238.692 275.928 238.317 275.928 237.567V235.504C275.928 234.785 276.428 234.176 277.428 233.676C278.647 233.02 279.256 232.129 279.256 231.004C279.256 230.692 279.225 230.332 279.162 229.926L277.194 220.129H264.959L262.99 229.551C262.897 229.957 262.85 230.254 262.85 230.442C262.85 231.379 263.553 232.41 264.959 233.535C265.865 234.285 266.319 234.942 266.319 235.504V237.567C266.319 238.317 265.865 238.692 264.959 238.692H255.162C254.069 238.692 253.522 238.317 253.522 237.567V235.129C253.522 234.473 253.865 233.942 254.553 233.535C255.834 232.754 256.678 231.426 257.084 229.551L268.006 175.035ZM271.194 190.082L266.319 214.129H275.928L271.194 190.082Z" fill="#A637F3"/>
<mask id="mask0_2679_64" style="mask-type:luminance" maskUnits="userSpaceOnUse" x="127" y="61" width="90" height="86">
<path d="M141.034 61.3411L216.993 76.2274L203.227 146.47L127.268 131.584L141.034 61.3411Z" fill="white"/>
</mask>
<g mask="url(#mask0_2679_64)">
<path d="M135.248 127.262C137.469 129.994 140.562 132.645 144.792 134.274C147.493 135.543 150.514 136.139 153.853 136.022C157.541 135.894 160.055 134.357 161.329 131.455C163.225 127.137 161.766 121 159.856 118.971C159.477 118.567 159.341 118.04 159.479 117.493C159.652 116.785 160.271 116.132 161.014 115.869L166.913 113.784C167.141 113.701 167.401 113.747 167.589 113.905C167.775 114.06 167.858 114.3 167.799 114.523L167.046 117.476C166.657 119.004 167.603 120.564 169.155 120.956L177.552 123.731L176.948 124.831L172.414 133.116C171.575 134.651 172.24 136.571 173.895 137.4C174.19 137.546 174.5 137.651 174.817 137.713C175.361 137.819 175.925 137.8 176.466 137.645C177.32 137.404 178.016 136.861 178.421 136.118L194.269 107.171C194.399 108.782 194.848 110.519 196.475 111.732C197.704 112.654 199.134 113.169 200.527 113.442C203.616 114.048 206.53 113.456 206.704 113.418C207.296 113.295 207.711 112.802 207.704 112.229C207.701 112.077 207.652 109.824 206.699 107.424C209.14 106.606 210.919 105.202 211.034 105.108C211.264 104.925 211.325 104.616 211.181 104.358C211.065 104.149 208.271 99.2244 203.665 98.3217C201.984 97.9923 200.262 98.3546 198.707 99.0633L200.968 94.9316C201.809 93.3993 201.142 91.4764 199.487 90.6498C198.684 90.2484 197.773 90.1605 196.916 90.4017C196.062 90.6435 195.368 91.1863 194.961 91.9294L191.343 98.5383L190.506 100.064C190.484 99.8717 190.43 99.6753 190.334 99.4798L189.796 98.2003C189.356 97.1262 187.506 96.7495 186.394 96.8316L185.806 96.8721C186.306 96.4818 186.771 96.0639 187.2 95.6157C188.726 94.0272 189.799 92.0987 190.227 89.9115C190.249 89.7996 190.269 89.6872 190.288 89.577C190.317 89.5665 190.343 89.5506 190.372 89.5401C190.799 89.3959 191.201 89.2237 191.569 89.0143C191.596 88.9989 191.62 88.9803 191.648 88.9648C192.025 88.7435 192.372 88.4954 192.691 88.2184C193.043 87.904 193.34 87.5855 193.611 87.2457C193.883 86.8991 194.121 86.5344 194.337 86.156C194.577 85.7334 194.76 85.3439 194.923 84.9435C194.937 84.9135 194.95 84.8836 194.963 84.8537C195.12 84.459 195.259 84.0562 195.379 83.6451C195.393 83.6035 195.405 83.5641 195.416 83.5243C195.533 83.1172 195.631 82.7041 195.717 82.2909C195.726 82.2439 195.735 82.1968 195.747 82.1503C195.828 81.7384 195.894 81.3259 195.949 80.9182C195.956 80.8685 195.961 80.8183 195.968 80.7686C196.021 80.3605 196.06 79.9567 196.09 79.5605C196.095 79.5103 196.097 79.4619 196.102 79.4117C196.13 79.0172 196.148 78.6326 196.156 78.2577C196.158 78.2093 196.16 78.1609 196.16 78.1142C196.168 77.7416 196.171 77.3819 196.166 77.0392C196.164 76.997 196.165 76.9553 196.163 76.9131C196.158 76.5726 196.147 76.2451 196.132 75.9422C196.132 75.9073 196.13 75.8767 196.129 75.844C196.114 75.5411 196.094 75.2584 196.075 75.0034C196.072 74.9796 196.071 74.9586 196.068 74.9348C196.048 74.6821 196.028 74.4549 196.009 74.2606C195.982 74.0253 195.964 73.8637 195.948 73.7442C195.932 73.6086 195.921 73.5251 195.915 73.4914C195.898 73.3742 195.863 73.2649 195.813 73.16C195.8 73.1271 195.775 73.1013 195.759 73.0702C195.718 72.9994 195.679 72.9314 195.626 72.8699C195.598 72.8364 195.563 72.8133 195.532 72.7816C195.479 72.7318 195.425 72.6793 195.363 72.637C195.324 72.6084 195.278 72.59 195.235 72.5677C195.181 72.5385 195.133 72.5035 195.075 72.4828C189.045 70.5363 184.453 73.5534 182.202 75.574C178.426 73.5229 173.762 72.739 169.532 73.4351C168.214 70.5546 165.088 65.7972 158.658 65.3366C158.557 65.3308 158.485 65.3445 158.413 65.3515C158.368 65.3564 158.321 65.352 158.277 65.3619C158.212 65.3748 158.152 65.4025 158.09 65.4253C158.039 65.4432 157.988 65.454 157.94 65.4796C157.882 65.5078 157.834 65.5517 157.78 65.5876C157.739 65.619 157.692 65.6424 157.653 65.6766C157.567 65.7575 157.492 65.8474 157.432 65.9496C157.231 66.2891 152.544 74.3251 154.487 79.9224C154.642 80.3664 154.837 80.7812 155.064 81.1721C155.14 81.3033 155.237 81.4199 155.322 81.5458C155.488 81.7922 155.657 82.0345 155.852 82.2565C155.975 82.3944 156.11 82.5162 156.244 82.6448C156.437 82.8291 156.635 83.0121 156.854 83.1782C157.013 83.2975 157.18 83.4094 157.35 83.5194C157.47 83.5963 157.573 83.6887 157.701 83.7603C157.648 84.0567 157.628 84.3503 157.603 84.6452C157.588 84.7958 157.558 84.948 157.551 85.0977C157.536 85.3923 157.551 85.6857 157.56 85.9805C157.563 86.1321 157.552 86.2859 157.565 86.4394C157.585 86.7293 157.633 87.0177 157.676 87.3073C157.699 87.4582 157.708 87.6113 157.736 87.7631C157.784 88.0143 157.858 88.2589 157.921 88.5084C157.927 88.5304 157.932 88.5525 157.938 88.5745C157.981 88.7363 158.011 88.9026 158.061 89.0636C158.132 89.2889 158.224 89.5046 158.307 89.7255C154.323 91.2903 148.608 94.2592 146.535 98.951C144.601 103.331 145.036 108.012 145.382 111.773L145.483 112.872C145.64 114.725 147.011 116.277 148.895 116.741C149.603 116.915 150.308 117.114 151.002 117.345C153.161 118.465 154.462 119.906 155.247 121.322C156.723 123.982 156.366 126.553 156.338 126.734C156.329 126.795 156.322 126.854 156.322 126.917C156.304 129.463 155.096 130.807 152.731 130.909C147.732 131.122 139.388 125.539 138.089 117.392C137.847 115.883 136.815 114.669 135.398 114.226C133.982 113.775 132.469 114.101 131.442 115.05C130.42 115.996 130.061 117.395 130.505 118.7C131.107 120.466 132.531 123.914 135.248 127.262ZM202.011 105.134C204.111 106.704 204.77 109.606 204.974 111.157C203.328 111.323 200.186 111.386 198.086 109.814C196.859 108.897 196.853 107.073 196.847 105.466C196.844 104.947 196.844 104.438 196.795 103.963C199.236 103.974 200.986 104.368 202.011 105.134ZM190.316 80.4002C190.689 79.1993 192.153 77.5847 193.493 76.3129C193.597 79.5786 193.277 85.0369 190.191 86.8568C189.998 84.8314 189.856 81.8977 190.316 80.4002ZM158.52 81.3218C157.801 80.7857 157.298 80.0896 156.994 79.2141C155.994 76.3378 157.326 72.3471 158.462 69.7662C159.492 72.832 160.614 77.8546 158.52 81.3218ZM160.335 84.0533C160.361 83.9235 160.364 83.7916 160.345 83.6623C164.012 81.6031 166.469 80.9733 168.236 81.6242C169.902 82.232 171.251 84.1143 172.36 87.349L171.909 89.6481C171.778 90.3175 172.252 90.973 172.969 91.1135C173.686 91.254 174.373 90.8259 174.504 90.1566L174.98 87.7276C175.37 87.0601 177.346 83.9233 180.279 83.7844C182.539 83.6718 185.096 85.4398 187.699 88.8906L187.626 89.4389C186.444 95.3443 179.392 98.9462 171.88 97.474C164.353 95.999 159.174 89.9791 160.335 84.0533ZM158.127 108.901C157.961 109.201 157.564 109.311 157.24 109.146C156.917 108.98 156.789 108.604 156.957 108.307C160.481 101.984 165.04 102.466 168.093 102.832L169.315 102.962C170.047 103.013 170.738 103.095 171.384 103.203L171.844 103.258C173.518 103.456 175.126 104.143 176.391 105.209C176.413 105.227 176.432 105.243 176.454 105.261C178.986 106.582 179.807 105.883 181.154 104.727C182.196 103.834 183.489 102.725 185.836 102.55L188.813 102.785C188.895 102.785 188.964 102.763 189.036 102.75L188.361 103.984L180.903 117.609L180.096 119.081C180.075 118.595 179.829 118.147 179.414 117.848C178.989 117.539 178.455 117.432 177.947 117.549L175.527 118.104C175.262 118.164 174.985 118.065 174.826 117.858C174.664 117.647 174.653 117.37 174.799 117.157C174.838 117.1 178.771 111.299 176.712 107.524C176.446 107.038 176.088 106.603 175.641 106.22C174.611 105.351 173.151 104.771 171.234 104.428L169.223 104.195C168.86 104.168 168.466 104.121 168.047 104.071C168.02 104.068 167.993 104.065 167.967 104.06L166.772 103.935C164.095 103.717 160.829 104.058 158.127 108.901Z" fill="#A637F3"/>
</g>
<path d="M165.732 90.5252C167.468 90.8654 169.161 89.7117 169.506 87.9521C169.851 86.1925 168.718 84.4875 166.982 84.1472C165.246 83.807 163.554 84.9585 163.209 86.7181C162.865 88.4777 163.997 90.185 165.732 90.5252Z" fill="#A637F3"/>
<path d="M180.286 93.3775C182.022 93.7177 183.715 92.564 184.06 90.8044C184.405 89.0448 183.272 87.3397 181.536 86.9995C179.8 86.6593 178.108 87.8108 177.763 89.5704C177.419 91.33 178.55 93.0373 180.286 93.3775Z" fill="#A637F3"/>
<path d="M171.99 96.0847C172.707 96.2252 173.394 95.7971 173.525 95.1255L173.695 94.2614C173.826 93.5921 173.352 92.9366 172.635 92.7961C171.918 92.6556 171.231 93.0836 171.1 93.753L170.931 94.6171C170.799 95.2887 171.273 95.9442 171.99 96.0847Z" fill="#A637F3"/>
<mask id="mask1_2679_64" style="mask-type:luminance" maskUnits="userSpaceOnUse" x="104" y="98" width="134" height="88">
<path d="M117.082 98.8997L237.388 122.477L224.943 185.981L104.636 162.403L117.082 98.8997Z" fill="white"/>
</mask>
<g mask="url(#mask1_2679_64)">
<mask id="mask2_2679_64" style="mask-type:luminance" maskUnits="userSpaceOnUse" x="113" y="116" width="121" height="81">
<path d="M113.187 117.045L231.065 116.414L233.757 196.347L115.881 196.978L113.187 117.045Z" fill="white"/>
</mask>
<g mask="url(#mask2_2679_64)">
<mask id="mask3_2679_64" style="mask-type:luminance" maskUnits="userSpaceOnUse" x="113" y="116" width="121" height="81">
<path d="M113.187 117.045L231.065 116.414L233.757 196.347L115.881 196.978L113.187 117.045Z" fill="white"/>
</mask>
<g mask="url(#mask3_2679_64)">
<path d="M196.617 117.504C198.749 116.953 200.99 116.725 203.333 116.712C207.216 116.692 210.676 117.265 213.716 118.547C217.236 120.041 220.672 122.669 224.025 126.379C227.285 130.089 229.642 133.965 231.092 138.062C231.708 139.787 232.068 142.054 232.159 144.755C232.253 147.563 232.04 149.618 231.528 150.97C230.377 154.38 228.167 156.93 224.897 158.57C223.193 159.389 221.848 159.774 220.864 159.778C220.116 159.783 219.734 159.569 219.72 159.136C219.699 158.541 220.092 157.73 220.908 156.807C222.838 154.365 223.769 152.093 223.697 149.933C223.632 148.042 223.049 146.1 221.955 144.161C220.802 141.899 218.919 139.477 216.306 137.008C213.648 134.483 211.222 132.659 209.031 131.644C208.084 131.217 206.856 130.953 205.355 130.961C200.114 130.989 194.761 132.639 189.299 135.802L186.339 137.6L187.645 138.944C188.906 140.232 190.43 142.439 192.223 145.564C194.063 148.793 195.006 151.003 195.045 152.138C195.086 153.38 194.706 154.57 193.902 155.764C193.057 157.011 192.144 157.772 191.17 158.101C190.245 158.429 189.686 158.431 189.488 158.162C189.287 157.842 189.455 157.138 189.98 156.055C190.417 155.187 190.633 154.593 190.624 154.321C190.618 154.16 190.322 153.73 189.732 152.977C189.39 152.548 187.732 151.151 184.745 148.683C181.708 146.214 180.017 144.655 179.668 144.01L178.707 142.448L176.786 143.864C171.648 146.969 162.262 151.99 148.642 158.977C145.655 160.614 143.232 161.76 141.379 162.31C139.848 162.805 137.706 163.087 134.944 163.102C127.358 163.142 121.746 159.822 118.105 153.199C117.16 151.475 116.579 150.236 116.365 149.534C116.155 148.779 116.009 147.158 115.928 144.729C115.828 141.758 116.12 139.379 116.807 137.539C117.493 135.7 118.92 133.693 121.095 131.413L124.015 128.48L118.711 125.267C115.123 123.071 113.32 121.676 113.304 121.136C113.283 120.544 113.792 120.272 114.822 120.264C115.614 120.261 116.715 120.308 118.12 120.355C123.615 120.651 129.52 122.292 135.845 125.284C139.989 127.314 142.184 128.6 142.437 129.138C142.451 129.515 141.337 130.494 139.098 132.126C135.163 134.902 132.389 137.241 130.77 139.249C129.151 141.2 128.374 143.259 128.442 145.311C128.48 146.39 128.781 147.683 129.354 149.248C131.26 154.424 134.412 157 138.811 156.976C139.933 156.97 141.261 156.747 142.794 156.308C145.804 155.318 149.066 153.574 152.584 150.96C156.331 148.24 161.36 143.837 167.661 137.701C175.509 130.203 181.052 125.312 184.303 123.078C187.782 120.685 191.886 118.825 196.617 117.504ZM159.709 174.745C160.299 174.363 160.81 174.145 161.232 174.142C162.869 174.132 163.926 175.586 164.398 178.5C164.636 179.904 165.111 180.874 165.828 181.356C166.5 181.839 167.757 182.211 169.589 182.47C172.778 182.723 174.542 183.631 174.874 185.142C174.98 185.412 175.036 185.683 175.048 186.006C175.068 186.601 174.707 187.034 173.961 187.255C173.174 187.475 171.914 187.589 170.182 187.598C167.841 187.611 166.4 187.889 165.855 188.433C165.314 188.922 164.982 190.219 164.861 192.274C164.678 195.19 163.865 196.707 162.412 196.715C161.806 196.72 161.228 196.29 160.686 195.535C160.192 194.73 159.802 193.542 159.516 192.031C159.263 190.033 158.85 188.848 158.272 188.418C157.645 187.935 156.209 187.675 153.961 187.685C152.182 187.694 150.889 187.595 150.089 187.382C149.381 187.225 149.017 186.795 148.995 186.145C148.983 185.822 149.021 185.552 149.104 185.28C149.334 183.766 151.082 182.839 154.35 182.552C156.31 182.271 157.54 181.94 158.038 181.506C158.585 181.015 158.832 180.15 158.791 178.91C158.721 176.802 159.024 175.397 159.709 174.745Z" fill="#A637F3"/>
</g>
</g>
</g>
</svg>
