<svg width="436" height="261" viewBox="0 0 436 261" fill="none" xmlns="http://www.w3.org/2000/svg">
<path d="M16.0469 86.3438L15.5781 83.1562C15.4219 82.125 15.3438 81.5469 15.3438 81.4219C15.3438 81.1094 15.5781 80.8438 16.0469 80.625L23.9688 76.9219C24.0938 76.8594 24.2344 76.8281 24.3906 76.8281C24.8281 76.8281 25.1094 77.1094 25.2344 77.6719L37.9844 141.234C38.2031 142.391 38.4688 143.219 38.7812 143.719C39.125 144.219 39.7656 144.75 40.7031 145.312C41.4219 145.75 41.7812 146.25 41.7812 146.812V148.875C41.7812 149.625 41.4844 150 40.8906 150H25.2344C24.3906 150 23.9688 149.625 23.9688 148.875V146.812C23.9688 146.094 24.4688 145.484 25.4688 144.984C26.6875 144.328 27.2969 143.438 27.2969 142.312C27.2969 142 27.2656 141.641 27.2031 141.234L25.2344 131.438H13L11.0312 140.859C10.9375 141.266 10.8906 141.562 10.8906 141.75C10.8906 142.688 11.5938 143.719 13 144.844C13.9062 145.594 14.3594 146.25 14.3594 146.812V148.875C14.3594 149.625 13.9062 150 13 150H3.20312C2.10938 150 1.5625 149.625 1.5625 148.875V146.438C1.5625 145.781 1.90625 145.25 2.59375 144.844C3.875 144.062 4.71875 142.734 5.125 140.859L16.0469 86.3438ZM19.2344 101.391L14.3594 125.438H23.9688L19.2344 101.391ZM58 115.875V141.281C58 142.906 58.5938 144.125 59.7812 144.938C60.5938 145.469 61 146.094 61 146.812V148.922C61 149.641 60.5938 150 59.7812 150H45.1562C44.4688 150 44.125 149.672 44.125 149.016V146.812C44.125 146.125 44.5312 145.5 45.3438 144.938C46.5312 144.094 47.125 142.875 47.125 141.281V85.7812C47.125 84.1875 46.5312 82.9844 45.3438 82.1719C44.5312 81.6406 44.125 81 44.125 80.25V78.1875C44.125 77.4688 44.5312 77.1094 45.3438 77.1094H57.625C64.5625 77.1094 69.8438 78.6719 73.4688 81.7969C77.0938 84.9219 78.9062 89.4375 78.9062 95.3438C78.9062 104.75 74.5469 110.828 65.8281 113.578C68.3906 114.828 70.3281 116.25 71.6406 117.844C72.9844 119.406 74.0156 121.719 74.7344 124.781L78.1562 139.641C78.5938 141.547 79.0156 142.844 79.4219 143.531C79.8594 144.188 80.5625 144.812 81.5312 145.406C81.8125 145.594 81.9531 145.891 81.9531 146.297V148.969C81.9531 149.656 81.6094 150 80.9219 150H71.5469C70.6406 150 70.0625 149.5 69.8125 148.5L63.4375 122.719C62.75 119.875 61.9844 118.031 61.1406 117.188C60.3281 116.344 59.2812 115.906 58 115.875ZM58 82.7812V110.297C61.375 110.297 63.8594 109.234 65.4531 107.109C67.0469 104.984 67.8438 101.203 67.8438 95.7656C67.8438 90.4531 67.0312 86.9688 65.4062 85.3125C63.8125 83.625 61.3438 82.7812 58 82.7812ZM97.8906 86.3438L97.4219 83.1562C97.2656 82.125 97.1875 81.5469 97.1875 81.4219C97.1875 81.1094 97.4219 80.8438 97.8906 80.625L105.812 76.9219C105.938 76.8594 106.078 76.8281 106.234 76.8281C106.672 76.8281 106.953 77.1094 107.078 77.6719L119.828 141.234C120.047 142.391 120.312 143.219 120.625 143.719C120.969 144.219 121.609 144.75 122.547 145.312C123.266 145.75 123.625 146.25 123.625 146.812V148.875C123.625 149.625 123.328 150 122.734 150H107.078C106.234 150 105.812 149.625 105.812 148.875V146.812C105.812 146.094 106.312 145.484 107.312 144.984C108.531 144.328 109.141 143.438 109.141 142.312C109.141 142 109.109 141.641 109.047 141.234L107.078 131.438H94.8438L92.875 140.859C92.7812 141.266 92.7344 141.562 92.7344 141.75C92.7344 142.688 93.4375 143.719 94.8438 144.844C95.75 145.594 96.2031 146.25 96.2031 146.812V148.875C96.2031 149.625 95.75 150 94.8438 150H85.0469C83.9531 150 83.4062 149.625 83.4062 148.875V146.438C83.4062 145.781 83.75 145.25 84.4375 144.844C85.7188 144.062 86.5625 142.734 86.9688 140.859L97.8906 86.3438ZM101.078 101.391L96.2031 125.438H105.812L101.078 101.391ZM128.969 141.281V85.7812C128.969 84.1875 128.375 82.9844 127.188 82.1719C126.375 81.6406 125.969 81 125.969 80.25V78.1875C125.969 77.4688 126.375 77.1094 127.188 77.1094H141.812C142.5 77.1094 142.844 77.4375 142.844 78.0938V80.25C142.844 80.9688 142.438 81.6094 141.625 82.1719C140.438 83.0156 139.844 84.2188 139.844 85.7812V144.422H143.828C146.172 144.422 147.984 143.703 149.266 142.266C150.578 140.797 151.547 138.312 152.172 134.812C152.422 133.469 152.594 132.703 152.688 132.516C152.812 132.297 153.094 132.188 153.531 132.188H155.734C156.578 132.188 157 132.531 157 133.219V150H127.141C126.109 150 125.594 149.531 125.594 148.594V146.812C125.594 146.094 126.047 145.469 126.953 144.938C128.297 144.125 128.969 142.906 128.969 141.281ZM173.312 141.281C173.312 142.906 173.906 144.125 175.094 144.938C175.906 145.469 176.312 146.094 176.312 146.812V148.922C176.312 149.641 175.906 150 175.094 150H160.469C159.781 150 159.438 149.672 159.438 149.016V146.812C159.438 146.125 159.844 145.5 160.656 144.938C161.844 144.094 162.438 142.875 162.438 141.281V85.7812C162.438 84.1875 161.844 82.9844 160.656 82.1719C159.844 81.6406 159.438 81 159.438 80.25V78.1875C159.438 77.4688 159.844 77.1094 160.656 77.1094H175.281C175.969 77.1094 176.312 77.4375 176.312 78.0938V80.25C176.312 80.9688 175.906 81.6094 175.094 82.1719C173.906 83.0156 173.312 84.2188 173.312 85.7812V141.281ZM182.406 141.281V85.7812C182.406 84.1875 181.812 82.9844 180.625 82.1719C179.812 81.6406 179.406 81 179.406 80.25V78.1875C179.406 77.4688 179.812 77.1094 180.625 77.1094H195.25C195.938 77.1094 196.281 77.4375 196.281 78.0938V80.25C196.281 80.9688 195.875 81.6094 195.062 82.1719C193.875 83.0156 193.281 84.2188 193.281 85.7812V144.422H197.266C199.609 144.422 201.422 143.703 202.703 142.266C204.016 140.797 204.984 138.312 205.609 134.812C205.859 133.469 206.031 132.703 206.125 132.516C206.25 132.297 206.531 132.188 206.969 132.188H209.172C210.016 132.188 210.438 132.531 210.438 133.219V150H180.578C179.547 150 179.031 149.531 179.031 148.594V146.812C179.031 146.094 179.484 145.469 180.391 144.938C181.734 144.125 182.406 142.906 182.406 141.281ZM226.703 86.3438L226.234 83.1562C226.078 82.125 226 81.5469 226 81.4219C226 81.1094 226.234 80.8438 226.703 80.625L234.625 76.9219C234.75 76.8594 234.891 76.8281 235.047 76.8281C235.484 76.8281 235.766 77.1094 235.891 77.6719L248.641 141.234C248.859 142.391 249.125 143.219 249.438 143.719C249.781 144.219 250.422 144.75 251.359 145.312C252.078 145.75 252.438 146.25 252.438 146.812V148.875C252.438 149.625 252.141 150 251.547 150H235.891C235.047 150 234.625 149.625 234.625 148.875V146.812C234.625 146.094 235.125 145.484 236.125 144.984C237.344 144.328 237.953 143.438 237.953 142.312C237.953 142 237.922 141.641 237.859 141.234L235.891 131.438H223.656L221.688 140.859C221.594 141.266 221.547 141.562 221.547 141.75C221.547 142.688 222.25 143.719 223.656 144.844C224.562 145.594 225.016 146.25 225.016 146.812V148.875C225.016 149.625 224.562 150 223.656 150H213.859C212.766 150 212.219 149.625 212.219 148.875V146.438C212.219 145.781 212.562 145.25 213.25 144.844C214.531 144.062 215.375 142.734 215.781 140.859L226.703 86.3438ZM229.891 101.391L225.016 125.438H234.625L229.891 101.391Z" fill="white"/>
<mask id="mask0_2681_93" style="mask-type:luminance" maskUnits="userSpaceOnUse" x="258" y="61" width="91" height="86">
<path d="M272.152 61.3413L348.111 76.2277L334.345 146.47L258.386 131.584L272.152 61.3413Z" fill="white"/>
</mask>
<g mask="url(#mask0_2681_93)">
<path d="M266.366 127.262C268.587 129.994 271.68 132.646 275.91 134.274C278.611 135.543 281.632 136.14 284.971 136.022C288.659 135.894 291.173 134.358 292.447 131.455C294.343 127.138 292.885 121.001 290.974 118.971C290.595 118.567 290.46 118.04 290.597 117.493C290.77 116.786 291.389 116.133 292.132 115.869L298.031 113.785C298.259 113.702 298.519 113.748 298.707 113.906C298.893 114.061 298.976 114.3 298.917 114.523L298.164 117.477C297.775 119.005 298.722 120.564 300.273 120.956L308.67 123.732L308.066 124.831L303.532 133.116C302.693 134.651 303.358 136.571 305.013 137.4C305.308 137.546 305.618 137.651 305.935 137.713C306.479 137.82 307.043 137.8 307.584 137.646C308.438 137.404 309.134 136.862 309.539 136.118L325.388 107.172C325.518 108.783 325.967 110.519 327.594 111.733C328.822 112.655 330.252 113.17 331.645 113.443C334.734 114.048 337.648 113.457 337.822 113.419C338.414 113.295 338.829 112.803 338.822 112.229C338.82 112.078 338.771 109.825 337.817 107.425C340.258 106.606 342.037 105.202 342.152 105.108C342.382 104.926 342.443 104.617 342.299 104.358C342.183 104.15 339.389 99.2247 334.783 98.3221C333.102 97.9927 331.381 98.355 329.825 99.0637L332.086 94.9319C332.927 93.3997 332.26 91.4768 330.605 90.6502C329.802 90.2488 328.891 90.1608 328.034 90.4021C327.18 90.6439 326.486 91.1867 326.079 91.9298L322.461 98.5387L321.624 100.065C321.602 99.8721 321.548 99.6756 321.452 99.4801L320.914 98.2006C320.474 97.1266 318.624 96.7499 317.512 96.8319L316.924 96.8724C317.424 96.4822 317.889 96.0643 318.318 95.616C319.844 94.0275 320.917 92.0991 321.346 89.9119C321.368 89.8 321.387 89.6876 321.406 89.5774C321.436 89.5669 321.461 89.551 321.491 89.5405C321.917 89.3963 322.319 89.224 322.687 89.0147C322.715 88.9993 322.738 88.9806 322.766 88.9652C323.143 88.7438 323.491 88.4958 323.809 88.2187C324.162 87.9043 324.458 87.5858 324.729 87.246C325.001 86.8995 325.239 86.5348 325.455 86.1563C325.695 85.7337 325.878 85.3443 326.041 84.9438C326.055 84.9139 326.068 84.884 326.081 84.8541C326.239 84.4594 326.377 84.0565 326.498 83.6454C326.511 83.6038 326.523 83.5645 326.534 83.5246C326.651 83.1175 326.749 82.7044 326.835 82.2912C326.844 82.2442 326.854 82.1972 326.865 82.1507C326.946 81.7387 327.012 81.3263 327.067 80.9186C327.074 80.8689 327.079 80.8187 327.086 80.769C327.139 80.3608 327.178 79.9571 327.208 79.5609C327.213 79.5107 327.215 79.4622 327.22 79.4121C327.248 79.0176 327.266 78.6329 327.275 78.2581C327.277 78.2096 327.279 78.1612 327.278 78.1146C327.286 77.7419 327.289 77.3822 327.284 77.0395C327.283 76.9974 327.283 76.9557 327.282 76.9135C327.276 76.573 327.266 76.2455 327.25 75.9426C327.25 75.9076 327.248 75.8771 327.247 75.8444C327.232 75.5415 327.213 75.2587 327.193 75.0038C327.19 74.98 327.189 74.9589 327.186 74.9351C327.166 74.6824 327.146 74.4553 327.127 74.2609C327.101 74.0257 327.083 73.864 327.066 73.7446C327.05 73.609 327.039 73.5255 327.033 73.4918C327.017 73.3746 326.981 73.2653 326.932 73.1603C326.918 73.1275 326.893 73.1017 326.877 73.0706C326.836 72.9998 326.797 72.9317 326.744 72.8703C326.716 72.8368 326.681 72.8136 326.65 72.7819C326.597 72.7321 326.543 72.6796 326.481 72.6374C326.442 72.6088 326.396 72.5904 326.353 72.5681C326.299 72.5389 326.251 72.5039 326.193 72.4832C320.163 70.5367 315.571 73.5537 313.32 75.5744C309.544 73.5233 304.88 72.7394 300.65 73.4355C299.333 70.555 296.207 65.7975 289.776 65.337C289.675 65.3311 289.603 65.3448 289.532 65.3518C289.486 65.3568 289.439 65.3524 289.395 65.3623C289.33 65.3752 289.27 65.4029 289.208 65.4257C289.158 65.4436 289.106 65.4543 289.058 65.4799C289.001 65.5081 288.952 65.5521 288.898 65.5879C288.857 65.6194 288.81 65.6428 288.771 65.677C288.685 65.7578 288.61 65.8478 288.55 65.9499C288.349 66.2895 283.662 74.3254 285.605 79.9227C285.76 80.3668 285.955 80.7816 286.182 81.1725C286.258 81.3037 286.355 81.4203 286.44 81.5462C286.606 81.7925 286.775 82.0349 286.971 82.2569C287.093 82.3948 287.228 82.5166 287.362 82.6452C287.555 82.8295 287.754 83.0124 287.973 83.1785C288.131 83.2979 288.298 83.4097 288.468 83.5198C288.588 83.5966 288.692 83.6891 288.82 83.7606C288.766 84.0571 288.746 84.3507 288.721 84.6456C288.706 84.7961 288.676 84.9484 288.669 85.0981C288.654 85.3926 288.669 85.6861 288.678 85.9809C288.681 86.1325 288.671 86.2862 288.683 86.4397C288.703 86.7297 288.751 87.018 288.794 87.3077C288.817 87.4586 288.827 87.6116 288.854 87.7635C288.902 88.0146 288.976 88.2593 289.039 88.5088C289.045 88.5308 289.051 88.5528 289.056 88.5749C289.099 88.7367 289.129 88.9029 289.179 89.0639C289.25 89.2893 289.342 89.5049 289.426 89.7259C285.442 91.2907 279.726 94.2596 277.654 98.9514C275.72 103.331 276.154 108.012 276.5 111.774L276.601 112.872C276.758 114.725 278.13 116.277 280.013 116.742C280.721 116.915 281.426 117.114 282.121 117.345C284.279 118.466 285.58 119.906 286.366 121.323C287.841 123.983 287.484 126.554 287.456 126.734C287.447 126.795 287.44 126.854 287.44 126.917C287.422 129.464 286.215 130.808 283.849 130.909C278.851 131.122 270.506 125.539 269.207 117.393C268.965 115.883 267.933 114.669 266.516 114.227C265.1 113.775 263.587 114.101 262.56 115.051C261.538 115.997 261.179 117.395 261.623 118.701C262.225 120.467 263.649 123.914 266.366 127.262ZM333.129 105.135C335.229 106.704 335.888 109.606 336.092 111.157C334.446 111.323 331.304 111.386 329.204 109.814C327.977 108.897 327.971 107.074 327.965 105.466C327.962 104.947 327.962 104.438 327.914 103.964C330.354 103.975 332.104 104.369 333.129 105.135ZM321.434 80.4006C321.807 79.1996 323.271 77.585 324.611 76.3133C324.715 79.579 324.395 85.0373 321.309 86.8572C321.116 84.8318 320.974 81.8981 321.434 80.4006ZM289.638 81.3222C288.919 80.7861 288.416 80.09 288.112 79.2144C287.112 76.3382 288.444 72.3475 289.58 69.7666C290.61 72.8324 291.732 77.855 289.638 81.3222ZM291.454 84.0537C291.479 83.9238 291.482 83.792 291.463 83.6627C295.131 81.6035 297.587 80.9737 299.354 81.6246C301.02 82.2324 302.369 84.1147 303.478 87.3494L303.028 89.6485C302.896 90.3179 303.37 90.9733 304.087 91.1138C304.804 91.2543 305.491 90.8263 305.622 90.1569L306.098 87.728C306.488 87.0605 308.464 83.9237 311.397 83.7848C313.658 83.6722 316.214 85.4402 318.817 88.8909L318.744 89.4393C317.562 95.3447 310.51 98.9466 302.998 97.4744C295.471 95.9994 290.292 89.9794 291.454 84.0537ZM289.245 108.901C289.08 109.201 288.682 109.312 288.358 109.146C288.035 108.98 287.907 108.604 288.075 108.307C291.599 101.984 296.158 102.466 299.211 102.832L300.433 102.962C301.165 103.013 301.856 103.095 302.502 103.203L302.962 103.258C304.636 103.456 306.245 104.143 307.51 105.209C307.531 105.227 307.55 105.243 307.572 105.261C310.104 106.583 310.925 105.883 312.272 104.727C313.314 103.834 314.607 102.725 316.954 102.55L319.931 102.785C320.013 102.785 320.082 102.764 320.154 102.75L319.479 103.984L312.021 117.61L311.215 119.081C311.193 118.596 310.947 118.148 310.533 117.848C310.108 117.539 309.573 117.432 309.065 117.549L306.646 118.105C306.38 118.164 306.103 118.066 305.945 117.858C305.782 117.647 305.771 117.371 305.917 117.158C305.956 117.1 309.889 111.299 307.83 107.525C307.565 107.038 307.207 106.603 306.759 106.22C305.729 105.351 304.269 104.772 302.352 104.429L300.341 104.195C299.978 104.168 299.584 104.121 299.165 104.072C299.138 104.069 299.112 104.066 299.085 104.06L297.89 103.935C295.214 103.718 291.947 104.059 289.245 108.901Z" fill="white"/>
</g>
<path d="M296.851 90.5252C298.587 90.8654 300.279 89.7117 300.624 87.9521C300.969 86.1925 299.837 84.4875 298.101 84.1472C296.365 83.807 294.672 84.9585 294.328 86.7181C293.983 88.4777 295.115 90.185 296.851 90.5252Z" fill="white"/>
<path d="M311.405 93.3773C313.141 93.7175 314.833 92.5637 315.178 90.8041C315.523 89.0445 314.39 87.3395 312.655 86.9993C310.919 86.6591 309.226 87.8106 308.882 89.5702C308.537 91.3298 309.669 93.037 311.405 93.3773Z" fill="white"/>
<path d="M303.108 96.0848C303.825 96.2253 304.512 95.7973 304.643 95.1257L304.813 94.2615C304.944 93.5922 304.47 92.9367 303.753 92.7962C303.036 92.6557 302.35 93.0837 302.218 93.7531L302.049 94.6172C301.917 95.2888 302.392 95.9443 303.108 96.0848Z" fill="white"/>
<mask id="mask1_2681_93" style="mask-type:luminance" maskUnits="userSpaceOnUse" x="235" y="98" width="134" height="88">
<path d="M248.2 98.8999L368.507 122.477L356.061 185.981L235.754 162.403L248.2 98.8999Z" fill="white"/>
</mask>
<g mask="url(#mask1_2681_93)">
<mask id="mask2_2681_93" style="mask-type:luminance" maskUnits="userSpaceOnUse" x="244" y="116" width="121" height="81">
<path d="M244.305 117.045L362.183 116.415L364.875 196.348L247 196.979L244.305 117.045Z" fill="white"/>
</mask>
<g mask="url(#mask2_2681_93)">
<mask id="mask3_2681_93" style="mask-type:luminance" maskUnits="userSpaceOnUse" x="244" y="116" width="121" height="81">
<path d="M244.305 117.045L362.183 116.415L364.875 196.348L247 196.979L244.305 117.045Z" fill="white"/>
</mask>
<g mask="url(#mask3_2681_93)">
<path d="M327.735 117.504C329.867 116.953 332.108 116.725 334.451 116.712C338.334 116.692 341.794 117.266 344.835 118.547C348.354 120.041 351.79 122.67 355.144 126.379C358.403 130.089 360.76 133.966 362.211 138.062C362.826 139.787 363.186 142.054 363.277 144.755C363.371 147.563 363.158 149.618 362.646 150.971C361.495 154.381 359.285 156.93 356.016 158.57C354.311 159.389 352.966 159.774 351.982 159.778C351.234 159.783 350.853 159.569 350.838 159.136C350.817 158.541 351.21 157.73 352.026 156.807C353.956 154.365 354.887 152.093 354.815 149.933C354.75 148.042 354.167 146.101 353.073 144.161C351.92 141.899 350.037 139.477 347.424 137.008C344.766 134.483 342.34 132.66 340.149 131.644C339.202 131.217 337.974 130.953 336.474 130.961C331.232 130.989 325.879 132.639 320.417 135.802L317.458 137.6L318.763 138.944C320.024 140.232 321.548 142.44 323.341 145.564C325.181 148.793 326.125 151.003 326.164 152.138C326.204 153.381 325.824 154.571 325.02 155.764C324.175 157.012 323.262 157.772 322.288 158.102C321.363 158.429 320.805 158.432 320.606 158.163C320.405 157.842 320.573 157.138 321.099 156.055C321.535 155.188 321.751 154.593 321.742 154.322C321.736 154.16 321.44 153.73 320.85 152.978C320.509 152.548 318.85 151.151 315.863 148.683C312.827 146.214 311.135 144.655 310.786 144.01L309.825 142.448L307.904 143.864C302.767 146.97 293.38 151.99 279.761 158.977C276.773 160.614 274.35 161.76 272.497 162.31C270.966 162.805 268.824 163.087 266.063 163.102C258.476 163.142 252.865 159.823 249.223 153.2C248.278 151.476 247.697 150.237 247.484 149.534C247.273 148.78 247.128 147.159 247.046 144.73C246.946 141.758 247.238 139.379 247.925 137.54C248.611 135.701 250.038 133.693 252.213 131.413L255.133 128.48L249.829 125.267C246.241 123.071 244.438 121.676 244.422 121.136C244.401 120.544 244.91 120.272 245.94 120.265C246.732 120.262 247.834 120.308 249.238 120.355C254.733 120.651 260.638 122.292 266.963 125.284C271.107 127.314 273.302 128.6 273.555 129.138C273.569 129.515 272.456 130.494 270.216 132.126C266.281 134.902 263.507 137.241 261.889 139.249C260.269 141.2 259.492 143.259 259.56 145.311C259.598 146.39 259.899 147.683 260.472 149.248C262.378 154.425 265.531 157 269.93 156.976C271.051 156.971 272.38 156.748 273.912 156.309C276.922 155.318 280.185 153.574 283.702 150.96C287.449 148.24 292.478 143.837 298.779 137.701C306.628 130.203 312.17 125.312 315.421 123.079C318.9 120.685 323.004 118.825 327.735 117.504ZM290.827 174.745C291.418 174.364 291.928 174.145 292.35 174.142C293.987 174.133 295.045 175.586 295.517 178.501C295.754 179.905 296.229 180.874 296.946 181.356C297.619 181.839 298.875 182.211 300.707 182.47C303.896 182.723 305.66 183.631 305.992 185.142C306.098 185.412 306.155 185.683 306.166 186.006C306.186 186.601 305.825 187.034 305.08 187.256C304.292 187.476 303.032 187.589 301.3 187.598C298.96 187.611 297.518 187.889 296.974 188.433C296.432 188.922 296.101 190.22 295.979 192.274C295.796 195.19 294.984 196.707 293.53 196.715C292.925 196.72 292.346 196.29 291.805 195.536C291.31 194.73 290.921 193.542 290.634 192.031C290.381 190.033 289.968 188.848 289.39 188.419C288.763 187.935 287.327 187.675 285.08 187.685C283.3 187.695 282.007 187.595 281.208 187.382C280.499 187.225 280.135 186.795 280.113 186.145C280.102 185.822 280.139 185.553 280.223 185.281C280.452 183.766 282.2 182.839 285.468 182.552C287.428 182.271 288.658 181.94 289.156 181.506C289.703 181.016 289.95 180.15 289.909 178.91C289.839 176.802 290.142 175.397 290.827 174.745Z" fill="white"/>
</g>
</g>
</g>
</svg>
